<svg xmlns="http://www.w3.org/2000/svg" xmlns:xlink="http://www.w3.org/1999/xlink" width="48" height="48" viewBox="0 0 48 48">
  <defs>
    <clipPath id="clip-path">
      <rect id="Rectangle_42" data-name="Rectangle 42" width="48" height="48" transform="translate(12 195)" fill="#fff"/>
    </clipPath>
  </defs>
  <g id="Mask_Group_6" data-name="Mask Group 6" transform="translate(-12 -195)" clip-path="url(#clip-path)">
    <g id="dashboard" transform="translate(12 195)">
      <path id="Path_14" data-name="Path 14" d="M18.5,16H3.5A3.5,3.5,0,0,1,0,12.5v-9A3.5,3.5,0,0,1,3.5,0h15A3.5,3.5,0,0,1,22,3.5v9A3.5,3.5,0,0,1,18.5,16ZM3.5,3a.5.5,0,0,0-.5.5v9a.5.5,0,0,0,.5.5h15a.5.5,0,0,0,.5-.5v-9a.5.5,0,0,0-.5-.5Zm0,0" fill="#fff"/>
      <path id="Path_15" data-name="Path 15" d="M18.5,48H3.5A3.5,3.5,0,0,1,0,44.5v-21A3.5,3.5,0,0,1,3.5,20h15A3.5,3.5,0,0,1,22,23.5v21A3.5,3.5,0,0,1,18.5,48ZM3.5,23a.5.5,0,0,0-.5.5v21a.5.5,0,0,0,.5.5h15a.5.5,0,0,0,.5-.5v-21a.5.5,0,0,0-.5-.5Zm0,0" fill="#fff"/>
      <path id="Path_16" data-name="Path 16" d="M44.5,48h-15A3.5,3.5,0,0,1,26,44.5v-9A3.5,3.5,0,0,1,29.5,32h15A3.5,3.5,0,0,1,48,35.5v9A3.5,3.5,0,0,1,44.5,48Zm-15-13a.5.5,0,0,0-.5.5v9a.5.5,0,0,0,.5.5h15a.5.5,0,0,0,.5-.5v-9a.5.5,0,0,0-.5-.5Zm0,0" fill="#fff"/>
      <path id="Path_17" data-name="Path 17" d="M44.5,28h-15A3.5,3.5,0,0,1,26,24.5V3.5A3.5,3.5,0,0,1,29.5,0h15A3.5,3.5,0,0,1,48,3.5v21A3.5,3.5,0,0,1,44.5,28ZM29.5,3a.5.5,0,0,0-.5.5v21a.5.5,0,0,0,.5.5h15a.5.5,0,0,0,.5-.5V3.5a.5.5,0,0,0-.5-.5Zm0,0" fill="#fff"/>
    </g>
  </g>
</svg>
