<svg xmlns="http://www.w3.org/2000/svg" xmlns:xlink="http://www.w3.org/1999/xlink" width="48" height="48" viewBox="0 0 48 48">
  <defs>
    <clipPath id="clip-path">
      <rect id="Rectangle_44" data-name="Rectangle 44" width="48" height="48" transform="translate(12 385)" fill="#fff"/>
    </clipPath>
  </defs>
  <g id="Mask_Group_8" data-name="Mask Group 8" transform="translate(-12 -385)" clip-path="url(#clip-path)">
    <path id="settings_1_" data-name="settings (1)" d="M45.366,18.788l-3.76-.478a18.9,18.9,0,0,0-1.138-2.748l2.322-2.99a2.973,2.973,0,0,0-.244-3.958L39.4,5.464a2.981,2.981,0,0,0-3.97-.254L32.44,7.532a18.832,18.832,0,0,0-2.75-1.138L29.212,2.64A3,3,0,0,0,26.24,0H21.76a3,3,0,0,0-2.972,2.634l-.478,3.76a18.614,18.614,0,0,0-2.75,1.138L12.572,5.21a2.975,2.975,0,0,0-3.958.244L5.464,8.6a2.982,2.982,0,0,0-.254,3.972l2.322,2.988A18.68,18.68,0,0,0,6.394,18.31l-3.754.478A3,3,0,0,0,0,21.76v4.48a3,3,0,0,0,2.634,2.972l3.76.478a18.9,18.9,0,0,0,1.138,2.748L5.21,35.428a2.973,2.973,0,0,0,.244,3.958l3.15,3.15a2.983,2.983,0,0,0,3.97.252l2.988-2.322A18.464,18.464,0,0,0,18.31,41.6l.478,3.752A3,3,0,0,0,21.76,48h4.48a3,3,0,0,0,2.972-2.634l.478-3.76a18.9,18.9,0,0,0,2.748-1.138l2.99,2.322a2.973,2.973,0,0,0,3.958-.244l3.15-3.15a2.979,2.979,0,0,0,.254-3.97l-2.322-2.988a18.464,18.464,0,0,0,1.138-2.748l3.752-.478A3,3,0,0,0,48,26.24V21.76a2.992,2.992,0,0,0-2.632-2.972ZM24,34A10,10,0,1,1,34,24,10.011,10.011,0,0,1,24,34Z" transform="translate(12.001 385)" fill="#fff"/>
  </g>
</svg>
