<svg id="Capa_1" enable-background="new 0 0 512 512" height="512" viewBox="0 0 512 512" width="512" xmlns="http://www.w3.org/2000/svg"><g><g><g><g><g><g><g><path d="m496.58 168.291c9.977 27.359 15.42 56.898 15.42 87.709 0 141.385-114.615 256-256 256s-256-114.615-256-256 114.615-256 256-256c76.297 0 144.799 33.377 191.7 86.327z" fill="#2fddd0"/></g></g></g></g></g></g><path d="m485.796 168.542-285.913 6.643 68.347 68.347-71.832 184.13 83.259 83.259c130.295-11.938 232.343-121.512 232.343-254.921 0-19.798-2.247-39.07-6.501-57.577z" fill="#11bfae"/><g><path d="m336.747 373.188c0 44.596-36.152 80.747-80.747 80.747s-80.747-36.152-80.747-80.747 80.747-152.393 80.747-152.393 80.747 107.797 80.747 152.393z" fill="#ff583e"/></g><g><path d="m336.747 373.188c0-44.26-79.55-150.792-80.747-152.393v233.14c44.583-.015 80.747-36.161 80.747-80.747z" fill="#f92814"/></g><g><path d="m257.417 177.872v-78.922l-37.14 1.955-36.814 13.792-8.998 3.801c1.27 34.697 23.869 63.958 55.062 75.102z" fill="#ffd2bf"/></g><g><path d="m283.331 198.423h222.168c-9.73-42.337-29.959-80.665-57.8-112.096h-132.646l-59.025 20.767v81.203z" fill="#ffa480"/></g><g><path d="m174.464 118.497h114.812c14.236 0 25.777-11.541 25.777-25.777v-6.393h-140.589z" fill="#fff"/></g><g><path d="m256.028 86.327v32.17h33.248c14.236 0 25.777-11.541 25.777-25.777v-6.393z" fill="#e9edf5"/></g><g><path d="m257.482 198.423h25.849c-.869-12.966-12.773-23.238-27.331-23.238-12.697 0-23.374 7.814-26.474 18.413 8.736 3.124 18.147 4.825 27.956 4.825z" fill="#ff583e"/></g><g><path d="m283.331 198.423c-.869-12.957-12.758-23.225-27.303-23.238v23.206c.485.008.967.031 1.454.031h25.849z" fill="#f92814"/></g><path d="" fill="#ffd2bf"/></g></svg>