<svg id="user_1_" data-name="user (1)" xmlns="http://www.w3.org/2000/svg" width="118" height="118" viewBox="0 0 118 118">
  <path id="Path_61" data-name="Path 61" d="M59,0a58.994,58.994,0,1,0,59,59A58.994,58.994,0,0,0,59,0Z" fill="#89d6f7"/>
  <path id="Path_62" data-name="Path 62" d="M93.471,98.4A86.361,86.361,0,0,0,79,89.638a14.939,14.939,0,0,1-8.525-15.656,1.6,1.6,0,0,1,.046-.3s13.589-9.2,11.707-18.165a8.942,8.942,0,0,0,1.045-.023c5.993-.557,6.365-9.477.441-10.43-.046,0-.116-.023-.163-.023l-.186-.976c1.812-6.341,6.225-25.551-7.131-23.693,0,0-9.593-15.865-29.872-8.223-20.3,7.619-15.006,25.807-15.006,25.807L33.867,45.2c-5.459,1.347-4.948,9.779.859,10.313a9.359,9.359,0,0,0,1.069.023C33.89,64.505,47.479,73.7,47.479,73.7c.023.116.023.209.046.3A15,15,0,0,1,39,89.661a86.953,86.953,0,0,0-14.471,8.757,18.661,18.661,0,0,0-4.646,4.808,59.073,59.073,0,0,0,78.21-.046A18.467,18.467,0,0,0,93.471,98.4Z" fill="#41596b"/>
</svg>
