<?xml version="1.0"?>
<svg xmlns="http://www.w3.org/2000/svg" xmlns:xlink="http://www.w3.org/1999/xlink" xmlns:svgjs="http://svgjs.com/svgjs" version="1.1" width="512" height="512" x="0" y="0" viewBox="0 0 512 512" style="enable-background:new 0 0 512 512" xml:space="preserve"><g><g xmlns="http://www.w3.org/2000/svg"><g><path d="m500.831 323.153c4.143 0 7.5-3.358 7.5-7.5v-243.805c0-6.893-5.607-12.5-12.5-12.5h-88.55v-46.848c0-6.893-5.607-12.5-12.5-12.5h-347.593c-23.997 0-43.519 19.522-43.519 43.519v409.761c0 23.997 19.522 43.52 43.52 43.52h41.076v4.864c0 3.855 2.121 7.361 5.536 9.151 1.513.792 3.159 1.185 4.799 1.185 2.061 0 4.111-.62 5.876-1.841l17.064-11.809 17.064 11.809c3.17 2.194 7.261 2.446 10.675.656 3.415-1.79 5.536-5.296 5.536-9.151v-4.864h239.966c6.893 0 12.5-5.607 12.5-12.5v-59.234h88.55c6.893 0 12.5-5.607 12.5-12.5v-61.912c0-4.142-3.357-7.5-7.5-7.5s-7.5 3.358-7.5 7.5v59.412h-117.773v-19.011h19.224c6.893 0 12.5-5.607 12.5-12.5v-19.799h48.016c4.143 0 7.5-3.358 7.5-7.5s-3.357-7.5-7.5-7.5h-48.016v-28.62h48.016c4.143 0 7.5-3.358 7.5-7.5s-3.357-7.5-7.5-7.5h-48.016v-28.62h48.016c4.143 0 7.5-3.358 7.5-7.5s-3.357-7.5-7.5-7.5h-48.016v-28.62h48.016c4.143 0 7.5-3.358 7.5-7.5s-3.357-7.5-7.5-7.5h-48.016v-28.62h48.016c4.143 0 7.5-3.358 7.5-7.5s-3.357-7.5-7.5-7.5h-48.016v-28.62h48.016c4.143 0 7.5-3.358 7.5-7.5s-3.357-7.5-7.5-7.5h-48.016v-51.31h86.05v241.305c-.001 4.144 3.356 7.502 7.499 7.502zm-482.162-279.634c0-15.726 12.794-28.519 28.519-28.519h30.502v361.055h-30.502c-10.899 0-20.876 4.027-28.52 10.673v-343.209zm28.519 347.536h17.383c-6.646 7.644-10.673 17.619-10.673 28.519s4.027 20.876 10.673 28.52h-17.383c-15.726 0-28.52-12.794-28.52-28.52s12.795-28.519 28.52-28.519zm41.077 90.744h-41.077c-15.726 0-28.52-12.794-28.52-28.52v-.876c7.644 6.649 17.616 10.689 28.52 10.689h41.076v18.707zm51.55 10.956-14.008-9.693c-2.566-1.776-5.969-1.777-8.535 0l-14.008 9.693v-67.69h36.551zm252.466-67.69v56.734h-237.466v-18.706h27.185c4.143 0 7.5-3.358 7.5-7.5s-3.357-7.5-7.5-7.5h-27.185v-30.528c0-4.142-3.357-7.5-7.5-7.5h-51.55c-4.143 0-7.5 3.358-7.5 7.5v29.009c-11.248-3.822-19.366-14.477-19.366-27.001 0-15.726 12.793-28.519 28.519-28.519h263.141v19.011h-61.234c-4.143 0-7.5 3.358-7.5 7.5s3.357 7.5 7.5 7.5h61.234v23.028h-143.559c-4.143 0-7.5 3.358-7.5 7.5s3.357 7.5 7.5 7.5h148.058c5.79 0 10.5-4.71 10.5-10.5v-27.528zm0-49.01h-299.591v-361.055h299.591z" fill="#ffffff" data-original="#000000" style=""/><path d="m121.236 358.009h242.5c5.79 0 10.5-4.71 10.5-10.5v-219.509c0-4.142-3.357-7.5-7.5-7.5s-7.5 3.358-7.5 7.5v215.009h-233.5v-294.964h233.5v44.955c0 4.142 3.357 7.5 7.5 7.5s7.5-3.358 7.5-7.5v-49.455c0-5.79-4.71-10.5-10.5-10.5h-242.5c-5.79 0-10.5 4.71-10.5 10.5v303.964c0 5.79 4.71 10.5 10.5 10.5z" fill="#ffffff" data-original="#000000" style=""/><path d="m305.502 102.588c0-5.79-4.71-10.5-10.5-10.5h-105.032c-5.79 0-10.5 4.71-10.5 10.5v47.756c0 5.79 4.71 10.5 10.5 10.5h105.032c5.79 0 10.5-4.71 10.5-10.5zm-15 43.256h-96.032v-38.756h96.032z" fill="#ffffff" data-original="#000000" style=""/><path d="m298.002 270.532h-111.032c-4.143 0-7.5 3.358-7.5 7.5s3.357 7.5 7.5 7.5h111.032c4.143 0 7.5-3.358 7.5-7.5s-3.357-7.5-7.5-7.5z" fill="#ffffff" data-original="#000000" style=""/><path d="m298.002 237.925h-111.032c-4.143 0-7.5 3.358-7.5 7.5s3.357 7.5 7.5 7.5h111.032c4.143 0 7.5-3.358 7.5-7.5s-3.357-7.5-7.5-7.5z" fill="#ffffff" data-original="#000000" style=""/></g></g></g></svg>
