<svg id="Capa_1" enable-background="new 0 0 512 512" height="512" viewBox="0 0 512 512" width="512" xmlns="http://www.w3.org/2000/svg"><g><circle cx="256" cy="256" fill="#ffce00" r="256"/><path d="m322.441 211.162-99.475-99.475-38.854 38.854-.537-.537-113.242 113.242 242.427 242.428c114.068-25.823 199.24-127.797 199.24-249.674 0-25.555-3.762-50.229-10.733-73.516l-75.074-75.074z" fill="#ffa300"/><path d="m256 431-172.353-181.48c-59.06-62.188-17.231-168.52 66.293-168.52 58.575 0 106.06 49.999 106.06 111.677l35.166 74.441z" fill="#ff5b5b"/><path d="m256 431 172.353-181.48c59.06-62.188 17.231-168.52-66.293-168.52-58.575 0-106.06 49.999-106.06 111.677z" fill="#ff3939"/><path d="m214.002 241.817h-143.669v21.428h153.029l21.887-23.627v88.369l10.713-12.51 5.126-59.927-5.126-59.017z" fill="#fff"/><path d="m297.921 270.183h143.746v-21.428h-153.106l-21.887 23.627v-88.369l-10.712 12.52v118.944z" fill="#e9edf5"/></g></svg>