<?xml version="1.0"?>
<svg xmlns="http://www.w3.org/2000/svg" xmlns:xlink="http://www.w3.org/1999/xlink" xmlns:svgjs="http://svgjs.com/svgjs" version="1.1" width="512" height="512" x="0" y="0" viewBox="0 0 512 512" style="enable-background:new 0 0 512 512" xml:space="preserve" class=""><g>
<g xmlns="http://www.w3.org/2000/svg">
	<g>
		<g>
			<path style="" d="M256,385.384c-52.714,0-109.396-20.757-163.918-60.026     c-40.688-29.306-65.828-58.374-66.879-59.597c-4.827-5.621-4.827-13.924,0-19.545c1.051-1.223,26.191-30.291,66.879-59.598     c54.521-39.27,111.204-60.026,163.918-60.026s109.397,20.757,163.918,60.026c40.688,29.307,65.828,58.375,66.879,59.598     c4.827,5.621,4.827,13.924,0,19.545c-1.051,1.223-26.19,30.291-66.879,59.597C365.397,364.627,308.714,385.384,256,385.384z" fill="#dfeefa" data-original="#dfeefa" class=""/>
			<path style="" d="M419.918,325.357c40.688-29.306,65.828-58.374,66.879-59.597c4.827-5.621,4.827-13.924,0-19.545     c-1.051-1.223-26.19-30.291-66.879-59.598c-54.521-39.27-111.204-60.026-163.918-60.026v258.792     C308.714,385.384,365.397,364.627,419.918,325.357z" fill="#c9dff7" data-original="#c9dff7"/>
		</g>
		<g>
			<path style="" d="M256,385.384c-71.345,0-129.389-58.047-129.389-129.395c0-71.35,58.044-129.396,129.389-129.396     s129.389,58.047,129.389,129.396C385.389,327.337,327.345,385.384,256,385.384z" fill="#9ebbdb" data-original="#9ebbdb"/>
			<path style="" d="M385.389,255.988c0-71.35-58.044-129.396-129.389-129.396v258.792     C327.345,385.384,385.389,327.337,385.389,255.988z" fill="#82a0d2" data-original="#82a0d2"/>
		</g>
		<g>
			<path style="" d="M256,300.99c-24.814,0-45-20.188-45-45.002c0-24.814,20.186-45.002,45-45.002s45,20.188,45,45.002     C301,280.803,280.814,300.99,256,300.99z" fill="#2d5078" data-original="#2d5078"/>
			<path style="" d="M301,255.988c0-24.814-20.186-45.002-45-45.002v90.004C280.814,300.99,301,280.803,301,255.988z" fill="#18304a" data-original="#18304a"/>
		</g>
	</g>
	<g>
		<path style="" d="M15,110.005c-8.284,0-15-6.716-15-15V15C0,6.716,6.716,0,15,0h80c8.284,0,15,6.716,15,15    s-6.716,15-15,15H30v65.005C30,103.289,23.284,110.005,15,110.005z" fill="#ffffff" data-original="#ffd236" class=""/>
		<path style="" d="M496.995,110.005c-8.284,0-15-6.716-15-15V30h-65c-8.284,0-15-6.716-15-15s6.716-15,15-15h80    c8.284,0,15,6.716,15,15v80.005C511.995,103.289,505.279,110.005,496.995,110.005z" fill="#ffffff" data-original="#ffb500" class=""/>
		<path style="" d="M497,512h-80c-8.284,0-15-6.716-15-15s6.716-15,15-15h65v-65.005c0-8.284,6.716-15,15-15    s15,6.716,15,15V497C512,505.284,505.284,512,497,512z" fill="#ffffff" data-original="#ffb500" class=""/>
		<path style="" d="M95.005,512h-80c-8.284,0-15-6.716-15-15v-80.005c0-8.284,6.716-15,15-15s15,6.716,15,15V482h65    c8.284,0,15,6.716,15,15S103.289,512,95.005,512z" fill="#ffffff" data-original="#ffd236" class=""/>
		<g>
			<path style="" d="M256,76.141c-8.284,0-15-6.716-15-15V15c0-8.284,6.716-15,15-15c8.284,0,15,6.716,15,15v46.141     C271,69.425,264.284,76.141,256,76.141z" fill="#ffffff" data-original="#ffd236" class=""/>
			<path style="" d="M271,61.141V15c0-8.284-6.716-15-15-15v76.141C264.284,76.141,271,69.425,271,61.141z" fill="#ffffff" data-original="#ffb500" class=""/>
		</g>
		<g>
			<path style="" d="M256,512c-8.284,0-15-6.716-15-15v-46.141c0-8.284,6.716-15,15-15c8.284,0,15,6.716,15,15V497     C271,505.284,264.284,512,256,512z" fill="#ffffff" data-original="#ffd236" class=""/>
			<path style="" d="M271,497v-46.141c0-8.284-6.716-15-15-15V512C264.284,512,271,505.284,271,497z" fill="#ffffff" data-original="#ffb500" class=""/>
		</g>
	</g>
</g>















</g></svg>
